<?xml version="1.0" encoding="utf-8"?>
<!-- Generator: Adobe Illustrator 22.1.0, SVG Export Plug-In . SVG Version: 6.00 Build 0)  -->
<svg version="1.1" id="Layer_1" xmlns="http://www.w3.org/2000/svg" xmlns:xlink="http://www.w3.org/1999/xlink" x="0px" y="0px"
	 viewBox="0 0 25 25" style="enable-background:new 0 0 25 25;" xml:space="preserve">
<style type="text/css">
	.st0{fill:#bababa;}
</style>
<path class="st0" d="M23.2,13.3c0.5-0.4,0.8-1,0.8-1.6c0-1.2-1-2.1-2.2-2.1h-4.7c-0.4,0-0.7-0.3-0.7-0.6c0-0.1,0-0.2,0.1-0.3
	l0.1-0.1c0.2-0.4,0.4-0.8,0.4-1.2V5.5c0-1.2-0.9-2.2-2.1-2.2s-2.1,1-2.1,2.2l0,1.5c-0.1,0.4-0.3,0.9-0.4,1.1c-0.2,0.1-0.5,0.4-1,0.7
	l-1,0.4L9,9.6l-0.1,0C8.6,8.9,7.9,8.5,7,8.5H2.8c-1.2,0-2.2,1-2.2,2.2v8.5c0,1.2,1,2.2,2.2,2.2H7c0.8,0,1.5-0.4,1.9-1.1
	c0.8,0.6,1.2,0.7,1.4,0.8c0.1,0.1,0.3,0.2,3.8,0.8l4.5,0l0.1,0c0.1,0,0.1,0,0.2,0h1.9c1.2,0,2.2-0.9,2.2-2.1c0-0.4-0.1-0.8-0.4-1.1
	c0.5-0.4,0.8-1,0.8-1.6c0-0.5-0.2-0.9-0.4-1.3c0.4-0.4,0.7-0.9,0.7-1.5C23.6,14,23.5,13.6,23.2,13.3z M7.8,19.2
	c0,0.4-0.3,0.7-0.7,0.7H2.8c-0.4,0-0.7-0.3-0.7-0.7v-8.5c0-0.4,0.3-0.7,0.7-0.7H7c0.4,0,0.7,0.3,0.7,0.7V19.2z M21.8,12.3h-1.2
	l-0.2,1.5h0.9c0.4,0,0.7,0.3,0.7,0.6c0,0.3-0.3,0.6-0.7,0.6h-1l-0.2,1.5h1c0.4,0,0.7,0.3,0.7,0.6c0,0.3-0.3,0.6-0.7,0.6H20l-0.2,1.5
	h0.9c0.4,0,0.7,0.3,0.7,0.6c0,0.3-0.3,0.6-0.7,0.6l-3.2,0l-3.2,0c-1.4-0.2-2.9-0.5-3.2-0.6c0,0-0.1,0-0.1-0.1
	c-0.1-0.1-0.5-0.2-1.6-1V11l1.4-0.5l1.1-0.5c0,0,0.7-0.4,1.3-0.8c0.5-0.4,0.8-1.2,0.9-1.7c0-0.1,0-0.2,0.1-0.3V5.5
	c0-0.4,0.3-0.7,0.6-0.7s0.6,0.3,0.6,0.7v1.9c0,0.2-0.1,0.4-0.2,0.5l0,0c0,0,0,0.1-0.1,0.1c0,0,0,0,0,0l0,0c0,0,0,0.1,0,0.1
	c0,0,0,0.1,0,0.1c-0.1,0.3-0.2,0.6-0.2,0.9c0,1.2,1,2.1,2.2,2.1h4.7c0.4,0,0.7,0.3,0.7,0.6S22.2,12.3,21.8,12.3z"/>
</svg>
