<?xml version="1.0" encoding="utf-8"?>
<!-- Generator: Adobe Illustrator 22.1.0, SVG Export Plug-In . SVG Version: 6.00 Build 0)  -->
<svg version="1.1" id="Layer_1" xmlns="http://www.w3.org/2000/svg" xmlns:xlink="http://www.w3.org/1999/xlink" x="0px" y="0px"
	 viewBox="0 0 25 25" style="enable-background:new 0 0 25 25;" xml:space="preserve">
<style type="text/css">
	.st0{fill:#bababa;}
</style>
<g>
	<path class="st0" d="M1,9.2v6.4h5.5l5.7,3.3v-13L6.5,9.2H1z M11,8v8.9l-4.2-2.4H2.2v-4h4.6L11,8z"/>
	<path class="st0" d="M14.6,9.9c0.7,0.7,1,1.5,1,2.4c0,0.9-0.4,1.8-1,2.4l0.8,0.8c0.9-0.9,1.4-2,1.4-3.3c0-1.2-0.5-2.4-1.4-3.3
		L14.6,9.9z"/>
	<path class="st0" d="M18,6.5l-0.8,0.8c2.8,2.8,2.8,7.2,0,10l0.8,0.8C21.2,15,21.2,9.8,18,6.5z"/>
	<path class="st0" d="M20.5,4l-0.8,0.8c2,2,3.1,4.7,3.1,7.5c0,2.8-1.1,5.5-3.1,7.5l0.8,0.8c2.2-2.2,3.5-5.2,3.5-8.4
		C24,9.2,22.8,6.2,20.5,4z"/>
</g>
</svg>
