<?xml version="1.0" encoding="utf-8"?>
<!-- Generator: Adobe Illustrator 22.1.0, SVG Export Plug-In . SVG Version: 6.00 Build 0)  -->
<svg version="1.1" id="Layer_1" xmlns="http://www.w3.org/2000/svg" xmlns:xlink="http://www.w3.org/1999/xlink" x="0px" y="0px"
	 viewBox="0 0 25 25" style="enable-background:new 0 0 25 25;" xml:space="preserve">
<style type="text/css">
	.st0{fill:#bababa;}
</style>
<path class="st0" d="M21.8,4.1h-4.1c-0.8,0-1.5,0.4-1.8,1.1c-0.8-0.6-1.2-0.7-1.4-0.8c-0.1-0.1-0.3-0.2-3.7-0.8l-4.4,0l-0.1,0
	c-0.1,0-0.1,0-0.2,0H4.2C3,3.6,2.1,4.5,2.1,5.6c0,0.4,0.1,0.8,0.4,1.1c-0.5,0.4-0.8,1-0.8,1.6c0,0.4,0.2,0.9,0.4,1.2
	C1.7,9.9,1.4,10.5,1.4,11c0,0.4,0.1,0.8,0.4,1.1c-0.5,0.4-0.8,1-0.8,1.6c0,1.1,1,2.1,2.2,2.1h4.7c0.4,0,0.7,0.3,0.7,0.6
	c0,0.1,0,0.2-0.1,0.3l-0.1,0.1C8.2,17.2,8,17.6,8,18v1.8C8,21,9,22,10.1,22c1.1,0,2.1-1,2.1-2.2l0-1.5c0.1-0.4,0.3-0.9,0.4-1
	c0.2-0.1,0.5-0.4,1-0.7l1-0.4l1.2-0.4l0.1,0c0.4,0.6,1.1,1.1,1.9,1.1h4.1c1.2,0,2.2-1,2.2-2.2V6.3C24,5.1,23,4.1,21.8,4.1z
	 M15.4,14.4L14,14.9l-1.1,0.5c0,0-0.7,0.4-1.2,0.8c-0.5,0.4-0.8,1.2-0.9,1.7c0,0.1,0,0.2-0.1,0.3v1.7c0,0.4-0.3,0.7-0.6,0.7
	c-0.3,0-0.6-0.3-0.6-0.7V18c0-0.2,0.1-0.4,0.2-0.5l0,0c0,0,0-0.1,0.1-0.1c0,0,0,0,0,0c0,0,0,0,0,0c0,0,0-0.1,0-0.1c0,0,0,0,0-0.1
	C9.9,17,10,16.7,10,16.4c0-1.1-1-2.1-2.2-2.1H3.2c-0.4,0-0.7-0.3-0.7-0.6c0-0.3,0.3-0.6,0.7-0.6h1.1l0.2-1.5H3.6
	c-0.4,0-0.7-0.3-0.7-0.6c0-0.3,0.3-0.6,0.7-0.6h1l0.2-1.5h-1c-0.4,0-0.7-0.3-0.7-0.6c0-0.3,0.3-0.6,0.7-0.6h1.1l0.2-1.5H4.2
	C3.8,6.3,3.5,6,3.5,5.6S3.8,5,4.2,5l3.2,0l3.2,0c1.3,0.2,2.9,0.5,3.2,0.6c0,0,0.1,0,0.1,0.1c0.1,0.1,0.5,0.2,1.5,1V14.4z M22.6,14.7
	c0,0.4-0.3,0.7-0.7,0.7h-4.1c-0.4,0-0.7-0.3-0.7-0.7V6.3c0-0.4,0.3-0.7,0.7-0.7h4.1c0.4,0,0.7,0.3,0.7,0.7V14.7z"/>
</svg>
